<?xml version="1.0" standalone="no"?>
<!DOCTYPE svg PUBLIC "-//W3C//DTD SVG 20010904//EN"
 "http://www.w3.org/TR/2001/REC-SVG-20010904/DTD/svg10.dtd">
<svg version="1.0" xmlns="http://www.w3.org/2000/svg"
 width="100.000000pt" height="100.000000pt" viewBox="0 0 100.000000 100.000000"
 preserveAspectRatio="xMidYMid meet">

<g transform="translate(0.000000,100.000000) scale(0.100000,-0.100000)"
fill="#000000" stroke="none">
<path d="M420 990 c-267 -47 -451 -299 -410 -562 43 -283 315 -475 592 -417
134 28 282 139 342 256 126 251 24 560 -225 677 -103 49 -198 63 -299 46z
m182 -117 c26 -24 288 -484 288 -507 0 -25 -71 -149 -80 -139 -9 10 -380 654
-380 659 0 2 35 4 77 4 58 0 81 -4 95 -17z m-159 -245 l86 -148 -170 0 c-93 0
-169 3 -169 7 0 6 164 293 166 290 1 -1 40 -68 87 -149z m195 -338 c23 -40 42
-74 42 -76 0 -2 -98 -4 -217 -4 -153 0 -225 4 -242 13 -20 10 -97 116 -100
137 -1 3 106 4 236 3 l238 -2 43 -71z"/>
</g>
</svg>
